<svg width="30" height="29" viewBox="0 0 30 29" fill="none" xmlns="http://www.w3.org/2000/svg">
<circle cx="15.0068" cy="14.7754" r="14.1104" fill="white"/>
<path d="M29.1172 14.8593C29.1172 7.0161 22.7965 0.665039 15.0022 0.665039C7.20791 0.665039 0.896484 7.0161 0.896484 14.8593C0.896484 21.9471 6.04943 27.8226 12.7964 28.8857V18.9628H9.21904V14.8593H12.7964V11.7351C12.7964 8.17253 14.9095 6.21405 18.1255 6.21405C19.6732 6.21405 21.2858 6.48451 21.2858 6.48451V9.98179H19.5064C17.7548 9.98179 17.208 11.0729 17.208 12.2014V14.8593H21.119L20.4981 18.9628H17.208V28.8857C23.955 27.8226 29.1172 21.9471 29.1172 14.8593Z" fill="#186324"/>
</svg>
