<svg width="29" height="29" viewBox="0 0 29 29" fill="none" xmlns="http://www.w3.org/2000/svg">
<circle cx="14.4482" cy="14.7754" r="14.1104" fill="#186324"/>
<path d="M10.9432 6.37223C10.0467 6.40705 9.42874 6.55503 8.88909 6.76393C8.33203 6.98154 7.86201 7.2775 7.39199 7.74754C6.92197 8.21758 6.63474 8.68762 6.41714 9.24471C6.20824 9.78439 6.06897 10.4024 6.02545 11.299C5.99064 12.2042 5.98193 12.4915 5.98193 14.7895C5.99064 17.0874 5.99934 17.3834 6.04286 18.28C6.08638 19.1852 6.22565 19.7945 6.44325 20.3342C6.66085 20.8913 6.94808 21.3613 7.4181 21.8314C7.88812 22.3014 8.35814 22.5887 8.9239 22.8063C9.46356 23.0152 10.0728 23.1545 10.9781 23.198C11.8746 23.2328 12.1705 23.2415 14.4684 23.2415C16.7663 23.2328 17.0535 23.2241 17.9587 23.1806C18.8639 23.1371 19.4732 22.9978 20.0129 22.7889C20.5699 22.5713 21.04 22.2753 21.51 21.8053C21.98 21.3352 22.2672 20.8652 22.4761 20.3081C22.685 19.7684 22.833 19.1504 22.8678 18.2538C22.9113 17.3486 22.92 17.0613 22.9113 14.7633C22.9113 12.4567 22.9026 12.1694 22.8591 11.2729C22.8156 10.3676 22.6676 9.74957 22.4587 9.2186C22.2411 8.66151 21.9539 8.19147 21.4839 7.72143C21.0051 7.25138 20.5351 6.95543 19.9781 6.74652C19.4384 6.53762 18.8204 6.38964 17.9239 6.35482C17.0187 6.32 16.7314 6.3026 14.4336 6.3113C12.1357 6.3113 11.8485 6.32871 10.9432 6.37223ZM11.039 21.6747C10.2208 21.6399 9.7682 21.5006 9.47226 21.3875C9.07187 21.2308 8.79334 21.048 8.49741 20.752C8.20147 20.4561 8.01868 20.1775 7.86201 19.7858C7.74015 19.4812 7.60089 19.0372 7.56607 18.2103C7.52255 17.3138 7.51385 17.0526 7.51385 14.7895C7.50514 12.5263 7.51385 12.2652 7.54866 11.3686C7.59218 10.5417 7.72274 10.0977 7.8446 9.8018C7.99257 9.40139 8.17536 9.12285 8.47129 8.82689C8.76723 8.52224 9.04576 8.33944 9.44615 8.19147C9.74208 8.0696 10.1947 7.93033 11.0129 7.89551C11.9094 7.85199 12.1792 7.84329 14.4336 7.83458C16.6966 7.83458 16.9665 7.84329 17.8543 7.87811C18.6812 7.91292 19.1338 8.0522 19.4297 8.16535C19.8214 8.32204 20.1086 8.50483 20.4046 8.80078C20.7005 9.09673 20.8833 9.37527 21.04 9.77568C21.1531 10.0716 21.2924 10.5156 21.3359 11.3425C21.3794 12.239 21.3881 12.5002 21.3881 14.7633C21.3968 17.0265 21.3881 17.2876 21.3446 18.1842C21.3098 19.0111 21.1705 19.4551 21.0574 19.7597C20.9094 20.1514 20.7179 20.43 20.4307 20.7346C20.1347 21.0306 19.8475 21.2134 19.4558 21.37C19.1599 21.4832 18.7073 21.6225 17.8804 21.6573C16.9926 21.7008 16.7227 21.7095 14.4597 21.7182C12.2053 21.7182 11.9355 21.7095 11.039 21.6747ZM17.9413 10.2544C17.9413 10.533 18.0458 10.768 18.2459 10.9682C18.4374 11.1684 18.6812 11.2641 18.9597 11.2641C19.2382 11.2641 19.4819 11.1684 19.6821 10.9682C19.8736 10.768 19.9781 10.5243 19.9781 10.2457C19.9781 9.96718 19.8736 9.72346 19.6734 9.53196C19.4819 9.33175 19.2382 9.236 18.9597 9.236C18.6812 9.236 18.4374 9.33175 18.2372 9.53196C18.0458 9.73216 17.9413 9.96718 17.9413 10.2544ZM10.099 14.7808C10.1077 17.1832 12.0574 19.1243 14.4597 19.1243C16.862 19.1156 18.803 17.1658 18.7943 14.7633C18.7943 12.3696 16.8446 10.4198 14.4423 10.4285C12.04 10.4372 10.099 12.387 10.099 14.7808ZM11.6309 14.7808C11.6309 14.4065 11.7005 14.0496 11.8398 13.7014C11.979 13.3532 12.1879 13.0486 12.449 12.7874C12.7102 12.5176 13.0148 12.3174 13.363 12.1694C13.7111 12.0301 14.068 11.9518 14.4423 11.9518C14.8165 11.9518 15.1821 12.0214 15.5216 12.1694C15.8697 12.3087 16.1744 12.5089 16.4442 12.7787C16.7053 13.0399 16.9142 13.3445 17.0535 13.6927C17.2015 14.0322 17.2711 14.3978 17.2711 14.7721C17.2711 15.1463 17.2015 15.5032 17.0622 15.8514C16.9142 16.1996 16.714 16.5042 16.4529 16.7654C16.1831 17.0352 15.8784 17.2354 15.5303 17.3834C15.1908 17.5227 14.8253 17.601 14.451 17.601C14.0767 17.601 13.7198 17.5314 13.3717 17.3834C13.0322 17.2441 12.7189 17.0352 12.4578 16.7741C12.1966 16.5129 11.9877 16.2083 11.8485 15.8601C11.7005 15.5119 11.6309 15.155 11.6309 14.7808Z" fill="white"/>
</svg>
