<svg width="29" height="29" viewBox="0 0 29 29" fill="none" xmlns="http://www.w3.org/2000/svg">
<circle cx="14.6689" cy="14.7754" r="14.1104" fill="#186324"/>
<path d="M19.6159 9.56323C18.7498 8.9931 18.12 8.08088 17.9188 7.01956C17.8838 6.7915 17.8576 6.55468 17.8576 6.30908H15.0757L15.067 17.4837C15.0232 18.738 13.9997 19.7467 12.74 19.7467C12.3464 19.7467 11.979 19.6415 11.6553 19.4748C10.9117 19.0801 10.3956 18.2994 10.3956 17.396C10.3956 16.1066 11.4453 15.0541 12.74 15.0541C12.9762 15.0541 13.2124 15.0979 13.4311 15.1593V12.3174C13.2037 12.2823 12.9675 12.2648 12.74 12.2648C9.91446 12.2648 7.61377 14.5716 7.61377 17.396C7.61377 19.1327 8.47981 20.6765 9.80074 21.6062C10.6318 22.1851 11.6465 22.536 12.74 22.536C15.5569 22.536 17.8576 20.2291 17.8576 17.396V11.7297C18.951 12.5192 20.2807 12.9753 21.7241 12.9753V10.1948C20.9456 10.1948 20.2282 9.95794 19.6159 9.56323Z" fill="white"/>
</svg>
