<svg width="48" height="48" viewBox="0 0 48 48" fill="none" xmlns="http://www.w3.org/2000/svg">
<path d="M34.7549 26.8437L46.6104 33.6885L43.7666 38.6143L31.5459 31.5576L38.6514 43.8662L33.7256 46.709L26.8428 34.7871L26.8428 48L21.1562 48L21.1562 35.4424L14.6514 46.709L9.72558 43.8662L17.3652 30.6348L4.13379 38.2734L1.29004 33.3486L12.5576 26.8437L-1.17338e-06 26.8437L-9.24769e-07 21.1562L13.5322 21.1562L2.19726 14.6143L5.04004 9.68847L16.0088 16.0195L9.72559 5.13965L14.6514 2.2959L21.1562 13.5635L21.1563 -1.17338e-06L26.8428 -9.24812e-07L26.8428 14.2187L33.7256 2.2959L38.6514 5.13965L32.9023 15.0977L42.8604 9.34863L45.7031 14.2734L33.7822 21.1562L48 21.1562L48 26.8438L34.7549 26.8437ZM4.15527 14.0889L4.1543 14.0889L4.15527 14.0889ZM14.127 44.751L14.127 44.752L14.127 44.751ZM34.251 44.751L34.251 44.752L36.6934 43.3408L34.251 44.751Z" fill="url(#paint0_linear_122_160)"/>
<defs>
<linearGradient id="paint0_linear_122_160" x1="48" y1="24" x2="2.76562e-06" y2="24" gradientUnits="userSpaceOnUse">
<stop stop-color="#DFE48C"/>
<stop offset="1" stop-color="#68AD23"/>
</linearGradient>
</defs>
</svg>
