<svg width="29" height="29" viewBox="0 0 29 29" fill="none" xmlns="http://www.w3.org/2000/svg">
<circle cx="14.7861" cy="14.7754" r="14.1104" fill="#186324"/>
<path fill-rule="evenodd" clip-rule="evenodd" d="M11.6865 12.4958C11.5973 13.2702 11.5535 14.0456 11.5535 14.7752C11.5535 15.5048 11.5973 16.2802 11.6865 17.0546H17.8858C17.975 16.2802 18.0188 15.5048 18.0188 14.7752C18.0188 14.0456 17.975 13.2702 17.8858 12.4958H11.6865ZM10.1576 12.4958C10.074 13.2771 10.034 14.0501 10.034 14.7752C10.034 15.5003 10.074 16.2733 10.1576 17.0546H6.74534C6.53555 16.3145 6.42851 15.5475 6.42851 14.7752C6.42851 14.0029 6.53555 13.2359 6.74534 12.4958H10.1576ZM11.9231 10.9763H17.6493C17.5115 10.2842 17.3344 9.61901 17.1168 9.01716C16.8109 8.17126 16.442 7.49847 16.03 7.04926C15.6286 6.61158 15.2199 6.41753 14.7862 6.41753C14.3525 6.41753 13.9437 6.61158 13.5423 7.04926C13.1303 7.49847 12.7614 8.17126 12.4556 9.01716C12.238 9.61901 12.0609 10.2842 11.9231 10.9763ZM11.7119 7.00351C11.4447 7.4626 11.2181 7.97061 11.0266 8.50046C10.7494 9.26698 10.5342 10.1107 10.3762 10.9763H7.34181C7.73904 10.1978 8.25654 9.4853 8.87642 8.86543C9.6525 8.08935 10.5738 7.47373 11.5878 7.05371C11.6291 7.03664 11.6704 7.0199 11.7119 7.00351ZM5.5237 11.345C5.56714 11.2277 5.61284 11.1111 5.6608 10.9953C6.15717 9.79697 6.88473 8.70811 7.80191 7.79093C8.7191 6.87374 9.80796 6.14619 11.0063 5.64981C12.2047 5.15343 13.4891 4.89795 14.7862 4.89795C16.0833 4.89795 17.3677 5.15343 18.566 5.64981C19.7644 6.14619 20.8533 6.87374 21.7704 7.79093C22.6876 8.70811 23.4152 9.79697 23.9116 10.9953C23.9595 11.1111 24.0052 11.2277 24.0487 11.345C24.1003 11.4309 24.1355 11.5278 24.1498 11.6314C24.4895 12.6432 24.6634 13.7049 24.6634 14.7752C24.6634 15.8455 24.4895 16.9072 24.1498 17.919C24.1355 18.0226 24.1003 18.1195 24.0487 18.2054C24.0052 18.3227 23.9595 18.4393 23.9116 18.5551C23.4152 19.7534 22.6876 20.8423 21.7704 21.7595C20.8533 22.6766 19.7644 23.4042 18.566 23.9006C17.3677 24.397 16.0833 24.6524 14.7862 24.6524C13.4891 24.6524 12.2047 24.397 11.0063 23.9006C9.80796 23.4042 8.7191 22.6766 7.80191 21.7595C6.88473 20.8423 6.15717 19.7534 5.6608 18.5551C5.61284 18.4393 5.56714 18.3227 5.5237 18.2054C5.47204 18.1195 5.43688 18.0226 5.42261 17.919C5.08289 16.9072 4.90894 15.8455 4.90894 14.7752C4.90894 13.7049 5.08289 12.6432 5.42261 11.6314C5.43688 11.5278 5.47204 11.4309 5.5237 11.345ZM7.34181 18.5741C7.73904 19.3525 8.25654 20.0651 8.87642 20.685C9.6525 21.461 10.5738 22.0767 11.5878 22.4967C11.6291 22.5137 11.6704 22.5305 11.7119 22.5469C11.4447 22.0878 11.2181 21.5798 11.0266 21.0499C10.7494 20.2834 10.5342 19.4397 10.3762 18.5741H7.34181ZM11.9231 18.5741C12.0609 19.2662 12.238 19.9314 12.4556 20.5332C12.7614 21.3791 13.1303 22.0519 13.5423 22.5011C13.9437 22.9388 14.3525 23.1329 14.7862 23.1329C15.2199 23.1329 15.6286 22.9388 16.03 22.5011C16.442 22.0519 16.8109 21.3791 17.1168 20.5332C17.3344 19.9314 17.5115 19.2662 17.6493 18.5741H11.9231ZM19.1962 18.5741C19.0381 19.4397 18.823 20.2834 18.5458 21.0499C18.3542 21.5798 18.1277 22.0878 17.8605 22.5469C17.902 22.5305 17.9433 22.5137 17.9845 22.4967C18.9985 22.0767 19.9199 21.461 20.6959 20.685C21.3158 20.0651 21.8333 19.3525 22.2306 18.5741H19.1962ZM22.827 17.0546C23.0368 16.3145 23.1439 15.5475 23.1439 14.7752C23.1439 14.0029 23.0368 13.2359 22.827 12.4958H19.4147C19.4983 13.2771 19.5384 14.0501 19.5384 14.7752C19.5384 15.5003 19.4983 16.2733 19.4147 17.0546H22.827ZM19.1962 10.9763H22.2306C21.8333 10.1978 21.3158 9.4853 20.6959 8.86543C19.9199 8.08935 18.9985 7.47373 17.9845 7.05371C17.9433 7.03664 17.902 7.0199 17.8605 7.0035C18.1277 7.46259 18.3542 7.97061 18.5458 8.50046C18.823 9.26698 19.0381 10.1107 19.1962 10.9763Z" fill="white"/>
</svg>
