<svg width="29" height="29" viewBox="0 0 29 29" fill="none" xmlns="http://www.w3.org/2000/svg">
<circle cx="14.8896" cy="14.7754" r="14.1104" fill="#186324"/>
<path d="M23.0044 11.0515C22.8082 10.2936 22.2362 9.70403 21.5089 9.50191C20.185 9.13135 14.8896 9.13135 14.8896 9.13135C14.8896 9.13135 9.59408 9.13135 8.27839 9.50191C7.55108 9.70403 6.97087 10.2936 6.78291 11.0515C6.42334 12.4243 6.42334 15.2793 6.42334 15.2793C6.42334 15.2793 6.42334 18.1342 6.78291 19.507C6.97087 20.2565 7.55108 20.8545 8.27839 21.0566C9.59408 21.4272 14.8896 21.4272 14.8896 21.4272C14.8896 21.4272 20.185 21.4272 21.5089 21.0566C22.2362 20.8545 22.8082 20.2565 23.0044 19.507C23.3558 18.1342 23.3558 15.2793 23.3558 15.2793C23.3558 15.2793 23.3558 12.4243 23.0044 11.0515Z" fill="white"/>
<path d="M13.1572 17.3495C13.1572 17.5813 13.4088 17.7255 13.6088 17.6084L17.1444 15.5378C17.3423 15.422 17.3423 15.136 17.1444 15.0201L13.6088 12.9495C13.4088 12.8324 13.1572 12.9766 13.1572 13.2084V17.3495Z" fill="#186324"/>
</svg>
